<svg width="18" height="24" viewBox="0 0 18 24" fill="none" xmlns="http://www.w3.org/2000/svg">
<path d="M17.5744 15.1447C17.5502 12.2076 15.9927 9.33638 14.8525 7.23625C14.5999 6.76943 14.3627 6.33446 14.1638 5.93465L13.4103 4.42874L12.335 5.72485C12.1724 5.92256 12.0209 6.15982 11.8836 6.41794C10.5314 3.76421 9.83835 1.7113 9.82957 1.68494L9.26609 0L8.01062 1.25547C7.68329 1.58279 0 9.33309 0 15.2128C0 20.0578 3.94215 24 8.78718 24C13.6322 24 17.5744 20.0578 17.5744 15.2128V15.2095C17.5744 15.1919 17.5744 15.1766 17.5744 15.159L17.581 15.1502L17.5744 15.1447ZM5.49199 18.508C5.49199 15.2128 8.78718 11.9176 8.78718 11.9176C9.41767 15.2776 12.2241 16.2607 12.0824 18.508C11.9681 20.3248 10.6072 21.8032 8.78718 21.8032C6.96714 21.8032 5.49199 20.3281 5.49199 18.508Z" fill="#19ECB7"/>
</svg>
