<svg width="310" height="380" viewBox="0 0 310 380" fill="none" xmlns="http://www.w3.org/2000/svg">
<mask id="path-1-outside-1_2009_1414" maskUnits="userSpaceOnUse" x="-0.722656" y="0.15625" width="311" height="380" fill="black">
<rect fill="white" x="-0.722656" y="0.15625" width="311" height="380"/>
<path d="M45.0851 262.775C30.8795 265.679 16.8697 267.114 1.13617 267.114C16.8753 267.114 30.8402 264.997 45.0851 262.775Z"/>
</mask>
<path d="M158.716 99.3289L158.309 99.0376L158.716 99.3289ZM159.2 180.349L159.53 180.724L159.2 180.349ZM159.2 223.06L159.017 222.595L159.2 223.06ZM45.0851 262.775L45.1622 263.269C44.8939 263.311 44.6412 263.131 44.593 262.863C44.5449 262.596 44.7189 262.339 44.985 262.285L45.0851 262.775ZM151.698 328.997L151.79 328.506L151.698 328.997ZM161.905 267.114L161.776 267.597L161.905 267.114ZM292.739 295.139C293.014 295.166 293.215 295.41 293.188 295.685C293.161 295.96 292.916 296.161 292.641 296.134L292.69 295.636L292.739 295.139ZM309.223 187.722C309.498 187.692 309.745 187.89 309.774 188.165C309.804 188.439 309.606 188.686 309.331 188.716L309.277 188.219L309.223 187.722ZM299.176 87.917C299.436 87.8232 299.722 87.9576 299.816 88.2173C299.91 88.477 299.776 88.7636 299.516 88.8575L299.346 88.3873L299.176 87.917ZM256.061 0.731807C256.296 0.585845 256.604 0.657549 256.75 0.891963C256.896 1.12638 256.824 1.43473 256.59 1.58069L256.326 1.15625L256.061 0.731807ZM256.589 378.325C256.824 378.471 256.896 378.779 256.75 379.014C256.605 379.248 256.296 379.32 256.062 379.175L256.326 378.75L256.589 378.325ZM158.716 99.3289L159.122 99.6202C121.176 152.553 94.0373 191.825 70.1665 217.851C46.2861 243.888 25.5871 256.77 0.498199 256.77V256.27V255.77C25.1712 255.77 45.6216 243.133 69.4296 217.176C93.2474 191.207 120.336 152.008 158.309 99.0376L158.716 99.3289ZM159.2 180.349L159.53 180.724C121.596 214.177 94.4644 233.356 70.5747 244.166C46.6662 254.984 26.034 257.406 1.13617 257.406V256.906V256.406C25.9519 256.406 46.4289 253.993 70.1624 243.254C93.9148 232.507 120.958 213.407 158.869 179.974L159.2 180.349ZM159.2 223.06L159.382 223.526C107.565 243.835 75.9191 256.982 45.1852 263.265L45.0851 262.775L44.985 262.285C75.6113 256.024 107.152 242.923 159.017 222.595L159.2 223.06ZM151.698 328.997L151.606 329.489C102.096 320.225 76.8319 307.123 57.7315 296.338C38.6522 285.564 25.8429 277.183 1.13617 277.183V276.683V276.183C26.1429 276.183 39.1715 284.709 58.2232 295.467C77.2539 306.213 102.414 319.268 151.79 328.506L151.698 328.997ZM161.905 267.114L161.776 267.597C107.859 253.194 75.8881 258.475 45.1622 263.269L45.0851 262.775L45.008 262.281C75.78 257.479 107.916 252.174 162.035 266.631L161.905 267.114ZM292.69 295.636L292.641 296.134C243.337 291.296 216.015 282.085 161.776 267.597L161.905 267.114L162.035 266.631C216.315 281.13 243.538 290.311 292.739 295.139L292.69 295.636ZM309.277 188.219L309.331 188.716C232.679 197.028 195.331 209.435 159.382 223.526L159.2 223.06L159.017 222.595C195.041 208.475 232.475 196.044 309.223 187.722L309.277 188.219ZM299.346 88.3873L299.516 88.8575C229.553 114.144 193.942 150.377 159.53 180.724L159.2 180.349L158.869 179.974C193.253 149.651 229.004 113.279 299.176 87.917L299.346 88.3873ZM256.326 1.15625L256.59 1.58069C213.129 28.6424 185.758 62.4634 159.122 99.6202L158.716 99.3289L158.309 99.0376C184.968 61.8503 212.43 27.8993 256.061 0.731807L256.326 1.15625ZM256.326 378.75L256.062 379.175C222.884 358.568 195.088 337.624 151.606 329.489L151.698 328.997L151.79 328.506C195.502 336.684 223.488 357.766 256.589 378.325L256.326 378.75ZM45.0851 262.775L44.9309 261.787C45.4676 261.703 45.973 262.063 46.0693 262.597C46.1656 263.132 45.8175 263.646 45.2854 263.754L45.0851 262.775ZM1.13617 268.114C0.583893 268.114 0.136169 267.666 0.136169 267.114C0.136169 266.561 0.583893 266.114 1.13617 266.114V267.114V268.114ZM45.0851 262.775L45.2854 263.754C31.0119 266.672 16.9349 268.114 1.13617 268.114V267.114V266.114C16.8044 266.114 30.7471 264.685 44.8848 261.795L45.0851 262.775ZM45.0851 262.775L45.2393 263.763C30.9974 265.985 16.9621 268.114 1.13617 268.114V267.114V266.114C16.7885 266.114 30.683 264.01 44.9309 261.787L45.0851 262.775Z" fill="url(#paint0_linear_2009_1414)" mask="url(#path-1-outside-1_2009_1414)"/>
<defs>
<linearGradient id="paint0_linear_2009_1414" x1="626.379" y1="309.396" x2="77.8952" y2="489.791" gradientUnits="userSpaceOnUse">
<stop stop-color="#19ECB7" stop-opacity="0.1"/>
<stop offset="0.331731" stop-color="#19ECB7"/>
<stop offset="0.75" stop-color="#19ECB7"/>
<stop offset="1" stop-color="#19ECB7"/>
</linearGradient>
</defs>
</svg>
