<svg width="378" height="422" viewBox="0 0 378 422" fill="none" xmlns="http://www.w3.org/2000/svg">
<mask id="path-1-outside-1_2009_1412" maskUnits="userSpaceOnUse" x="-0.191406" y="-0.146484" width="378" height="422" fill="black">
<rect fill="white" x="-0.191406" y="-0.146484" width="378" height="422"/>
<path d="M332.475 279.775C346.681 282.678 360.691 284.113 376.424 284.113C360.685 284.113 346.72 281.997 332.475 279.775Z"/>
</mask>
<path d="M218.845 116.329L219.251 116.037L218.845 116.329ZM218.361 197.349L218.692 196.974L218.361 197.349ZM218.361 240.06L218.543 239.594L218.361 240.06ZM332.475 279.775L332.398 280.269C332.667 280.31 332.919 280.13 332.967 279.863C333.016 279.596 332.842 279.339 332.575 279.285L332.475 279.775ZM227.289 332.6L227.601 332.991L227.289 332.6ZM215.655 284.114L215.526 283.631L215.655 284.114ZM26.9655 323.168C26.6894 323.168 26.4655 323.392 26.4655 323.668C26.4655 323.944 26.6894 324.168 26.9655 324.168V323.668V323.168ZM0.765278 205.783C0.490174 205.807 0.286551 206.049 0.310474 206.324C0.334396 206.599 0.576806 206.803 0.85191 206.779L0.808594 206.281L0.765278 205.783ZM18.7416 103.072C18.4682 103.034 18.2153 103.224 18.1767 103.497C18.1382 103.771 18.3287 104.024 18.6021 104.062L18.6719 103.567L18.7416 103.072ZM78.3626 0.375982C78.0989 0.294136 77.8187 0.441585 77.7369 0.70532C77.6551 0.969054 77.8025 1.2492 78.0662 1.33105L78.2144 0.853516L78.3626 0.375982ZM98.8916 420.806C98.6309 420.897 98.4934 421.182 98.5845 421.443C98.6756 421.704 98.9607 421.841 99.2214 421.75L99.0565 421.278L98.8916 420.806ZM218.845 116.329L218.438 116.62C256.384 169.553 283.523 208.825 307.394 234.851C331.274 260.888 351.973 273.77 377.062 273.77V273.27V272.77C352.389 272.77 331.939 260.133 308.131 234.175C284.313 208.207 257.224 169.008 219.251 116.037L218.845 116.329ZM218.361 197.349L218.03 197.724C255.964 231.177 283.096 250.356 306.986 261.165C330.894 271.983 351.526 274.406 376.424 274.406V273.906V273.406C351.609 273.406 331.132 270.993 307.398 260.254C283.646 249.507 256.603 230.407 218.692 196.974L218.361 197.349ZM218.361 240.06L218.178 240.525C269.996 260.835 301.641 273.982 332.375 280.264L332.475 279.775L332.575 279.285C301.949 273.024 270.409 259.923 218.543 239.594L218.361 240.06ZM227.289 332.6L227.601 332.991C265.888 302.481 326.729 294.183 376.424 294.183V293.683V293.183C326.692 293.183 265.548 301.473 226.978 332.209L227.289 332.6ZM215.655 284.114L215.784 284.597C269.701 270.194 301.672 275.474 332.398 280.269L332.475 279.775L332.552 279.281C301.78 274.479 269.645 269.174 215.526 283.631L215.655 284.114ZM26.9655 323.668V324.168C104.886 324.168 161.605 299.069 215.784 284.597L215.655 284.114L215.526 283.631C161.187 298.146 104.711 323.168 26.9655 323.168V323.668ZM0.808594 206.281L0.85191 206.779C103.451 197.857 182.217 226.43 218.178 240.525L218.361 240.06L218.543 239.594C182.531 225.48 103.593 196.841 0.765278 205.783L0.808594 206.281ZM18.6719 103.567L18.6021 104.062C109.064 116.805 183.675 167.427 218.03 197.724L218.361 197.349L218.692 196.974C184.25 166.601 109.464 115.852 18.7416 103.072L18.6719 103.567ZM78.2144 0.853516L78.0662 1.33105C108.807 10.8711 137.24 30.3962 161.328 52.1995C185.413 73.9998 205.13 98.0551 218.438 116.62L218.845 116.329L219.251 116.037C205.912 97.4303 186.15 73.3176 161.999 51.4581C137.852 29.6016 109.294 9.97517 78.3626 0.375982L78.2144 0.853516ZM99.0565 421.278L99.2214 421.75C125.768 412.475 148.268 397.926 168.926 381.879C179.254 373.856 189.126 365.456 198.812 357.152C208.501 348.846 218.002 340.639 227.601 332.991L227.289 332.6L226.978 332.209C217.362 339.871 207.845 348.092 198.161 356.393C188.475 364.697 178.619 373.083 168.312 381.089C147.699 397.101 125.296 411.58 98.8916 420.806L99.0565 421.278ZM332.475 279.775L332.629 278.786C332.093 278.703 331.587 279.063 331.491 279.597C331.395 280.132 331.743 280.645 332.275 280.754L332.475 279.775ZM376.424 285.113C376.976 285.113 377.424 284.666 377.424 284.113C377.424 283.561 376.976 283.113 376.424 283.113V284.113V285.113ZM332.475 279.775L332.275 280.754C346.548 283.672 360.625 285.113 376.424 285.113V284.113V283.113C360.756 283.113 346.813 281.685 332.676 278.795L332.475 279.775ZM332.475 279.775L332.321 280.763C346.563 282.985 360.598 285.113 376.424 285.113V284.113V283.113C360.772 283.113 346.877 281.01 332.629 278.786L332.475 279.775Z" fill="url(#paint0_linear_2009_1412)" mask="url(#path-1-outside-1_2009_1412)"/>
<defs>
<linearGradient id="paint0_linear_2009_1412" x1="-248.818" y1="326.396" x2="299.665" y2="506.791" gradientUnits="userSpaceOnUse">
<stop stop-color="#19ECB7" stop-opacity="0.1"/>
<stop offset="0.331731" stop-color="#19ECB7"/>
<stop offset="0.75" stop-color="#19ECB7"/>
<stop offset="1" stop-color="#19ECB7"/>
</linearGradient>
</defs>
</svg>
