<svg width="189" height="575" viewBox="0 0 189 575" fill="none" xmlns="http://www.w3.org/2000/svg">
<path d="M75.8767 0.503906H74.6008C74.6008 0.503906 180.655 107.702 180.655 258.892C180.655 410.083 0.595851 574.68 0.595851 574.68H1.87179C1.87179 574.68 183.207 419.652 183.207 258.892C183.207 98.1325 75.8767 0.503906 75.8767 0.503906Z" fill="url(#paint0_linear_2009_1421)"/>
<g filter="url(#filter0_f_2009_1421)">
<path d="M81.6172 13.2656V16.4555C81.6172 16.4555 178.101 111.514 178.101 248.678C178.101 385.842 58.7997 510.247 58.7997 510.247L61.9896 515.351C61.9896 515.351 184.479 389.67 184.48 248.678C184.482 107.686 81.6172 13.2656 81.6172 13.2656Z" fill="url(#paint1_linear_2009_1421)"/>
</g>
<defs>
<filter id="filter0_f_2009_1421" x="54.7998" y="9.26562" width="133.681" height="510.085" filterUnits="userSpaceOnUse" color-interpolation-filters="sRGB">
<feFlood flood-opacity="0" result="BackgroundImageFix"/>
<feBlend mode="normal" in="SourceGraphic" in2="BackgroundImageFix" result="shape"/>
<feGaussianBlur stdDeviation="2" result="effect1_foregroundBlur_2009_1421"/>
</filter>
<linearGradient id="paint0_linear_2009_1421" x1="77.3446" y1="8.80691" x2="77.3446" y2="595.742" gradientUnits="userSpaceOnUse">
<stop stop-color="#04775A" stop-opacity="0"/>
<stop offset="0.278846" stop-color="#06B78B" stop-opacity="0.75"/>
<stop offset="0.509615" stop-color="#06AA81"/>
<stop offset="0.75" stop-color="#07C495" stop-opacity="0.5"/>
<stop offset="1" stop-color="#08DDA8" stop-opacity="0"/>
</linearGradient>
<linearGradient id="paint1_linear_2009_1421" x1="77.3433" y1="8.16184" x2="77.3433" y2="477.71" gradientUnits="userSpaceOnUse">
<stop stop-color="#14B990" stop-opacity="0"/>
<stop offset="0.341346" stop-color="#19ECB7"/>
<stop offset="0.485577" stop-color="white"/>
<stop offset="0.629808" stop-color="#8CF5DB"/>
<stop offset="1" stop-color="#0E8668" stop-opacity="0"/>
</linearGradient>
</defs>
</svg>
