<svg width="189" height="575" viewBox="0 0 189 575" fill="none" xmlns="http://www.w3.org/2000/svg">
<path d="M113.295 0.503906H114.571C114.571 0.503906 8.51674 107.702 8.51674 258.892C8.51674 410.083 188.576 574.68 188.576 574.68H187.3C187.3 574.68 5.96484 419.652 5.96484 258.892C5.96484 98.1325 113.295 0.503906 113.295 0.503906Z" fill="url(#paint0_linear_2009_1418)"/>
<g filter="url(#filter0_f_2009_1418)">
<path d="M107.555 13.2656V16.4555C107.555 16.4555 11.0711 111.514 11.0711 248.678C11.0711 385.842 130.372 510.247 130.372 510.247L127.182 515.351C127.182 515.351 4.69265 389.67 4.69141 248.678C4.69016 107.686 107.555 13.2656 107.555 13.2656Z" fill="url(#paint1_linear_2009_1418)"/>
</g>
<defs>
<filter id="filter0_f_2009_1418" x="0.691406" y="9.26562" width="133.681" height="510.085" filterUnits="userSpaceOnUse" color-interpolation-filters="sRGB">
<feFlood flood-opacity="0" result="BackgroundImageFix"/>
<feBlend mode="normal" in="SourceGraphic" in2="BackgroundImageFix" result="shape"/>
<feGaussianBlur stdDeviation="2" result="effect1_foregroundBlur_2009_1418"/>
</filter>
<linearGradient id="paint0_linear_2009_1418" x1="111.827" y1="8.80691" x2="111.827" y2="595.742" gradientUnits="userSpaceOnUse">
<stop stop-color="#04775A" stop-opacity="0"/>
<stop offset="0.278846" stop-color="#06B78B" stop-opacity="0.75"/>
<stop offset="0.509615" stop-color="#06AA81"/>
<stop offset="0.75" stop-color="#07C495" stop-opacity="0.5"/>
<stop offset="1" stop-color="#08DDA8" stop-opacity="0"/>
</linearGradient>
<linearGradient id="paint1_linear_2009_1418" x1="111.829" y1="8.16184" x2="111.829" y2="477.71" gradientUnits="userSpaceOnUse">
<stop stop-color="#14B990" stop-opacity="0"/>
<stop offset="0.341346" stop-color="#19ECB7"/>
<stop offset="0.485577" stop-color="white"/>
<stop offset="0.629808" stop-color="#8CF5DB"/>
<stop offset="1" stop-color="#0E8668" stop-opacity="0"/>
</linearGradient>
</defs>
</svg>
