<svg width="1399" height="288" viewBox="0 0 1399 288" fill="none" xmlns="http://www.w3.org/2000/svg">
<path class='robotIcon' d="M72 167L80 187H64L72 167Z" fill="#19ECB7"/>
<rect class='robotIcon' x="49" y="195" width="48" height="45" rx="22.5" stroke="#19ECB7" stroke-width="2"/>
<g filter="url(#filter0_d_1_27712)">
<mask id="path-4-inside-1_1_27712" fill="white">
<path class='robotIcon' d="M73 206C71.9739 206 71.1429 206.792 71.1429 207.769C71.1429 208.423 71.5183 208.987 72.0714 209.293V211.308H67.4286C64.8754 211.308 62.7857 213.299 62.7857 215.731V216.615H60V222.808H62.7857V227.231H66.5H67.4286H70.2143V225.462H68.3571V223.692H77.6429V224.577H79.5V221.923H66.5V225.462H64.6429V215.731C64.6429 214.255 65.8793 213.077 67.4286 213.077H78.5714C80.1207 213.077 81.3571 214.255 81.3571 215.731V223.692C81.3571 225.168 80.1207 226.346 78.5714 226.346H75.5282C75.2066 225.819 74.6147 225.462 73.9286 225.462C72.9025 225.462 72.0714 226.253 72.0714 227.231C72.0714 228.208 72.9025 229 73.9286 229C74.6147 229 75.2066 228.642 75.5282 228.115H78.5714C81.1245 228.115 83.2143 226.125 83.2143 223.692V222.808H86V216.615H83.2143V215.731C83.2143 213.299 81.1245 211.308 78.5714 211.308H73.9286V209.293C74.4817 208.987 74.8571 208.423 74.8571 207.769C74.8571 206.792 74.0261 206 73 206ZM69.2857 215.731C68.2596 215.731 67.4286 216.523 67.4286 217.5C67.4286 218.477 68.2596 219.269 69.2857 219.269C70.3118 219.269 71.1429 218.477 71.1429 217.5C71.1429 216.523 70.3118 215.731 69.2857 215.731ZM76.7143 215.731C75.6882 215.731 74.8571 216.523 74.8571 217.5C74.8571 218.477 75.6882 219.269 76.7143 219.269C77.7404 219.269 78.5714 218.477 78.5714 217.5C78.5714 216.523 77.7404 215.731 76.7143 215.731ZM61.8571 218.385H62.7857V221.038H61.8571V218.385ZM83.2143 218.385H84.1429V221.038H83.2143V218.385Z"/>
</mask>
<path class='robotIcon' d="M73 206C71.9739 206 71.1429 206.792 71.1429 207.769C71.1429 208.423 71.5183 208.987 72.0714 209.293V211.308H67.4286C64.8754 211.308 62.7857 213.299 62.7857 215.731V216.615H60V222.808H62.7857V227.231H66.5H67.4286H70.2143V225.462H68.3571V223.692H77.6429V224.577H79.5V221.923H66.5V225.462H64.6429V215.731C64.6429 214.255 65.8793 213.077 67.4286 213.077H78.5714C80.1207 213.077 81.3571 214.255 81.3571 215.731V223.692C81.3571 225.168 80.1207 226.346 78.5714 226.346H75.5282C75.2066 225.819 74.6147 225.462 73.9286 225.462C72.9025 225.462 72.0714 226.253 72.0714 227.231C72.0714 228.208 72.9025 229 73.9286 229C74.6147 229 75.2066 228.642 75.5282 228.115H78.5714C81.1245 228.115 83.2143 226.125 83.2143 223.692V222.808H86V216.615H83.2143V215.731C83.2143 213.299 81.1245 211.308 78.5714 211.308H73.9286V209.293C74.4817 208.987 74.8571 208.423 74.8571 207.769C74.8571 206.792 74.0261 206 73 206ZM69.2857 215.731C68.2596 215.731 67.4286 216.523 67.4286 217.5C67.4286 218.477 68.2596 219.269 69.2857 219.269C70.3118 219.269 71.1429 218.477 71.1429 217.5C71.1429 216.523 70.3118 215.731 69.2857 215.731ZM76.7143 215.731C75.6882 215.731 74.8571 216.523 74.8571 217.5C74.8571 218.477 75.6882 219.269 76.7143 219.269C77.7404 219.269 78.5714 218.477 78.5714 217.5C78.5714 216.523 77.7404 215.731 76.7143 215.731ZM61.8571 218.385H62.7857V221.038H61.8571V218.385ZM83.2143 218.385H84.1429V221.038H83.2143V218.385Z" stroke="#19ECB7" stroke-width="4" shape-rendering="crispEdges" mask="url(#path-4-inside-1_1_27712)"/>
</g>
<rect class='SIcon' x="300.949" y="57.6528" width="31.0882" height="31.0882" rx="15.5441" fill="#F14F5D" fill-opacity="0.64"/>
<rect class='SIcon' x="300.949" y="57.6528" width="31.0882" height="31.0882" rx="15.5441" stroke="#F14F5D"/>
<path class='SIcon' d="M316.982 74.2008L315.024 73.8048C312.758 73.3428 310.602 72.0668 310.602 69.3828C310.602 66.3688 313.726 64.9608 316.432 64.9608C319.38 64.9608 321.866 66.3028 322.504 69.5148H320.084C319.556 67.6448 317.84 67.0508 316.322 67.0508C315.156 67.0508 313.154 67.6008 313.154 69.2728C313.154 70.5928 314.188 71.2748 315.574 71.5608L317.466 71.9568C320.018 72.4848 322.812 73.4308 322.812 76.6648C322.812 79.8328 319.754 81.4828 316.674 81.4828C313 81.4828 310.47 79.4368 310.118 76.0928H312.582C313.044 78.2928 314.496 79.3928 316.762 79.3928C318.852 79.3928 320.282 78.4248 320.282 76.8628C320.282 75.2128 318.676 74.5528 316.982 74.2008Z" fill="white"/>
<rect class='BIcon' x="226.451" y="217.292" width="31.0882" height="31.0882" rx="15.5441" fill="#19ECB7" fill-opacity="0.37"/>
<rect class='BIcon' x="226.451" y="217.292" width="31.0882" height="31.0882" rx="15.5441" stroke="#19ECB7"/>
<path class='BIcon' d="M236.386 240.836V224.886H242.26C245.186 224.886 247.914 225.656 247.914 228.89C247.914 230.386 247.188 231.75 246.154 232.344C247.584 232.982 248.552 234.082 248.552 236.128C248.552 239.516 245.978 240.836 242.722 240.836H236.386ZM238.894 233.576V238.768H242.788C244.922 238.768 245.978 237.822 245.978 236.128C245.978 234.368 244.944 233.576 242.656 233.576H238.894ZM238.894 226.954V231.64H242.568C244.306 231.64 245.384 230.936 245.384 229.198C245.384 227.68 244.24 226.954 242.568 226.954H238.894Z" fill="white"/>
<path d="M0 221.115H4.06228V266.884H0V221.115Z" fill="#2CF3B0"/>
<path d="M5.67886 212.35H9.74115V221.134H5.67886V212.35Z" fill="#2CF3B0"/>
<path d="M11.3577 212.338H15.42V232.68H11.3577V212.338Z" fill="#006141"/>
<path d="M17.0368 232.827H21.099V136.203H17.0368V232.827Z" fill="#2CF3B0"/>
<path d="M34.0735 128.441H38.1358V73.4257H34.0735V128.441Z" fill="#2CF3B0"/>
<path d="M39.7524 99.2849H43.8147V73.3952H39.7524V99.2849Z" fill="#006141"/>
<path d="M45.4312 107.576H49.4935V99.2543H45.4312V107.576Z" fill="#006141"/>
<path d="M443.901 233.167H447.963V231.78H443.901V233.167Z" fill="#006141"/>
<path d="M318.965 50.337H323.027V42.0153H318.965V50.337Z" fill="#006141"/>
<path d="M375.754 42.0188H379.816V38.3203H375.754V42.0188Z" fill="#006141"/>
<path d="M51.1101 115.905H55.1724V107.584H51.1101V115.905Z" fill="#006141"/>
<path d="M449.58 235.477H453.642V233.165H449.58V235.477Z" fill="#006141"/>
<path d="M455.259 244.719H459.321V235.473H455.259V244.719Z" fill="#006141"/>
<path d="M460.938 229.472H465V244.729H460.938V229.472Z" fill="#2CF3B0"/>
<path d="M324.644 58.6664H328.706V50.3447H324.644V58.6664Z" fill="#006141"/>
<path d="M381.433 42.0125H385.495V46.6356H381.433V42.0125Z" fill="#006141"/>
<path d="M56.789 124.212H60.8512V115.891H56.789V124.212Z" fill="#006141"/>
<path d="M330.323 66.9732H334.385V58.6515H330.323V66.9732Z" fill="#006141"/>
<path d="M387.112 46.6314H391.174V54.953H387.112V46.6314Z" fill="#006141"/>
<path d="M62.468 151.911H66.5303V124.172H62.468V151.911Z" fill="#006141"/>
<path d="M336.002 94.6716H340.064V66.9328H336.002V94.6716Z" fill="#006141"/>
<path d="M67.6736 160.19H71.7359V151.868H67.6736V160.19Z" fill="#006141"/>
<path d="M73.3525 160.256H77.4148V118.186H73.3525V160.256Z" fill="#2CF3B0"/>
<path d="M341.681 94.7085H345.743V52.6379H341.681V94.7085Z" fill="#2CF3B0"/>
<path d="M90.8625 168.994H94.9248V156.05H90.8625V168.994Z" fill="#2CF3B0"/>
<path d="M96.5413 156.088H100.604V129.274H96.5413V156.088Z" fill="#2CF3B0"/>
<path d="M79.5047 126.521H83.567V118.199H79.5047V126.521Z" fill="#006141"/>
<path d="M85.1836 169.029H89.2459V126.496H85.1836V169.029Z" fill="#006141"/>
<path d="M103.167 171.799H107.229V129.266H103.167V171.799Z" fill="#006141"/>
<path d="M347.36 72.9719H351.422V52.6301H347.36V72.9719Z" fill="#006141"/>
<path d="M108.846 214.266H112.908V171.734H108.846V214.266Z" fill="#006141"/>
<path d="M114.525 239.166H118.587V214.201H114.525V239.166Z" fill="#006141"/>
<path d="M120.203 239.14H124.266V228.969H120.203V239.14Z" fill="#2CF3B0"/>
<path d="M233.782 206.828H237.844V196.657H233.782V206.828Z" fill="#2CF3B0"/>
<path d="M125.882 229.446H129.945V227.135H125.882V229.446Z" fill="#2CF3B0"/>
<path d="M239.46 197.134H243.523V194.822H239.46V197.134Z" fill="#2CF3B0"/>
<path d="M131.561 226.677H135.624V214.194H131.561V226.677Z" fill="#2CF3B0"/>
<path d="M245.139 194.364H249.202V181.882H245.139V194.364Z" fill="#2CF3B0"/>
<path d="M137.24 213.791H141.302V185.59H137.24V213.791Z" fill="#2CF3B0"/>
<path d="M250.818 181.479H254.881V153.278H250.818V181.479Z" fill="#2CF3B0"/>
<path d="M142.919 186.104H146.981V163.913H142.919V186.104Z" fill="#2CF3B0"/>
<path d="M256.497 153.792H260.559V131.601H256.497V153.792Z" fill="#2CF3B0"/>
<path d="M421.185 262.066H425.248V251.5H421.185V262.066Z" fill="#2CF3B0"/>
<path d="M398.47 36.5186H402.532V8.3174H398.47V36.5186Z" fill="#2CF3B0"/>
<path d="M404.149 8.78397H408.211V3.69852H404.149V8.78397Z" fill="#2CF3B0"/>
<path d="M148.598 163.892H152.66V157.419H148.598V163.892Z" fill="#2CF3B0"/>
<path d="M262.176 131.579H266.238V125.107H262.176V131.579Z" fill="#2CF3B0"/>
<path d="M426.864 253.199H430.926V246.726H426.864V253.199Z" fill="#2CF3B0"/>
<path d="M154.277 156.968H158.339V153.269H154.277V156.968Z" fill="#2CF3B0"/>
<path d="M267.855 124.655H271.917V120.957H267.855V124.655Z" fill="#2CF3B0"/>
<path d="M432.543 246.274H436.605V242.576H432.543V246.274Z" fill="#2CF3B0"/>
<path d="M159.956 153.294H164.018V134.339H159.956V153.294Z" fill="#2CF3B0"/>
<path d="M273.534 120.982H277.596V102.027H273.534V120.982Z" fill="#2CF3B0"/>
<path d="M438.222 246.274H442.284V231.321H438.222V246.274Z" fill="#2CF3B0"/>
<path d="M284.892 80.8029H288.954V74.3305H284.892V80.8029Z" fill="#2CF3B0"/>
<path d="M353.038 72.9556H357.101V66.4832H353.038V72.9556Z" fill="#2CF3B0"/>
<path d="M290.57 73.8788H294.633V70.1803H290.57V73.8788Z" fill="#2CF3B0"/>
<path d="M358.717 66.0315H362.78V62.333H358.717V66.0315Z" fill="#2CF3B0"/>
<path d="M296.25 70.2051H300.312V51.2502H296.25V70.2051Z" fill="#2CF3B0"/>
<path d="M364.396 62.3579H368.459V43.403H364.396V62.3579Z" fill="#2CF3B0"/>
<path d="M392.791 55.8954H396.853V36.9405H392.791V55.8954Z" fill="#2CF3B0"/>
<path d="M301.928 52.645H305.991V46.1726H301.928V52.645Z" fill="#2CF3B0"/>
<path d="M370.075 44.7977H374.138V38.3253H370.075V44.7977Z" fill="#2CF3B0"/>
<path d="M307.607 45.7209H311.669V42.0224H307.607V45.7209Z" fill="#2CF3B0"/>
<path d="M313.286 42.0472H317.348V23.0923H313.286V42.0472Z" fill="#2CF3B0"/>
<path d="M165.635 134.406H169.697V112.215H165.635V134.406Z" fill="#2CF3B0"/>
<path d="M279.213 102.093H283.275V79.9024H279.213V102.093Z" fill="#2CF3B0"/>
<path d="M171.314 118.655H175.376V112.182H171.314V118.655Z" fill="#006141"/>
<path d="M176.993 124.655H181.055V118.183H176.993V124.655Z" fill="#006141"/>
<path d="M182.671 139.902H186.734V124.645H182.671V139.902Z" fill="#006141"/>
<path d="M188.35 139.893H192.413V130.185H188.35V139.893Z" fill="#2CF3B0"/>
<path d="M194.029 130.2H198.091V120.491H194.029V130.2Z" fill="#2CF3B0"/>
<path d="M222.424 182.385H226.486V156.958H222.424V182.385Z" fill="#006141"/>
<path d="M415.507 262.066H419.569V93.7179H415.507V262.066Z" fill="#006141"/>
<path d="M228.103 206.85H232.165V181.423H228.103V206.85Z" fill="#006141"/>
<path d="M199.708 120.035H203.77V116.337H199.708V120.035Z" fill="#2CF3B0"/>
<path d="M205.387 126.033H209.449V116.325H205.387V126.033Z" fill="#006141"/>
<path d="M22.7156 165.779H26.7779V136.191H22.7156V165.779Z" fill="#2CF3B0"/>
<path d="M28.3945 136.199H32.4568V128.34H28.3945V136.199Z" fill="#2CF3B0"/>
<path d="M211.066 126.955H215.128V126.03H211.066V126.955Z" fill="#006141"/>
<path d="M216.745 156.946H220.807V126.433H216.745V156.946Z" fill="#006141"/>
<path d="M409.828 94.1675H413.89V3.55389H409.828V94.1675Z" fill="#006141"/>
<path d="M233.313 207.289H237.412V197.089H233.313V207.289Z" fill="#2CF3B0"/>
<path d="M239.044 197.568H243.144V195.249H239.044V197.568Z" fill="#2CF3B0"/>
<path d="M244.775 194.79H248.875V182.272H244.775V194.79Z" fill="#2CF3B0"/>
<path d="M250.506 181.868H254.606V153.587H250.506V181.868Z" fill="#2CF3B0"/>
<path d="M256.237 154.103H260.337V131.849H256.237V154.103Z" fill="#2CF3B0"/>
<path d="M261.968 131.828H266.068V125.337H261.968V131.828Z" fill="#2CF3B0"/>
<path d="M267.7 124.884H271.799V121.175H267.7V124.884Z" fill="#2CF3B0"/>
<path d="M273.431 121.2H277.53V102.191H273.431V121.2Z" fill="#2CF3B0"/>
<path d="M284.893 80.9071H288.993V74.4164H284.893V80.9071Z" fill="#2CF3B0"/>
<path d="M290.624 73.9634H294.724V70.2545H290.624V73.9634Z" fill="#2CF3B0"/>
<path d="M296.355 70.2793H300.455V51.2708H296.355V70.2793Z" fill="#2CF3B0"/>
<path d="M279.162 102.258H283.261V80.0041H279.162V102.258Z" fill="#2CF3B0"/>
<path class='robotIcon' d="M539 167L547 187H531L539 167Z" fill="#19ECB7"/>
<rect class='robotIcon' x="516" y="195" width="48" height="45" rx="22.5" stroke="#19ECB7" stroke-width="2"/>
<g filter="url(#filter1_d_1_27712)">
<mask id="path-14-inside-2_1_27712" fill="white">
<path class='robotIcon' d="M540 206C538.974 206 538.143 206.792 538.143 207.769C538.143 208.423 538.518 208.987 539.071 209.293V211.308H534.429C531.875 211.308 529.786 213.299 529.786 215.731V216.615H527V222.808H529.786V227.231H533.5H534.429H537.214V225.462H535.357V223.692H544.643V224.577H546.5V221.923H533.5V225.462H531.643V215.731C531.643 214.255 532.879 213.077 534.429 213.077H545.571C547.121 213.077 548.357 214.255 548.357 215.731V223.692C548.357 225.168 547.121 226.346 545.571 226.346H542.528C542.207 225.819 541.615 225.462 540.929 225.462C539.902 225.462 539.071 226.253 539.071 227.231C539.071 228.208 539.902 229 540.929 229C541.615 229 542.207 228.642 542.528 228.115H545.571C548.125 228.115 550.214 226.125 550.214 223.692V222.808H553V216.615H550.214V215.731C550.214 213.299 548.125 211.308 545.571 211.308H540.929V209.293C541.482 208.987 541.857 208.423 541.857 207.769C541.857 206.792 541.026 206 540 206ZM536.286 215.731C535.26 215.731 534.429 216.523 534.429 217.5C534.429 218.477 535.26 219.269 536.286 219.269C537.312 219.269 538.143 218.477 538.143 217.5C538.143 216.523 537.312 215.731 536.286 215.731ZM543.714 215.731C542.688 215.731 541.857 216.523 541.857 217.5C541.857 218.477 542.688 219.269 543.714 219.269C544.74 219.269 545.571 218.477 545.571 217.5C545.571 216.523 544.74 215.731 543.714 215.731ZM528.857 218.385H529.786V221.038H528.857V218.385ZM550.214 218.385H551.143V221.038H550.214V218.385Z"/>
</mask>
<path class='robotIcon' d="M540 206C538.974 206 538.143 206.792 538.143 207.769C538.143 208.423 538.518 208.987 539.071 209.293V211.308H534.429C531.875 211.308 529.786 213.299 529.786 215.731V216.615H527V222.808H529.786V227.231H533.5H534.429H537.214V225.462H535.357V223.692H544.643V224.577H546.5V221.923H533.5V225.462H531.643V215.731C531.643 214.255 532.879 213.077 534.429 213.077H545.571C547.121 213.077 548.357 214.255 548.357 215.731V223.692C548.357 225.168 547.121 226.346 545.571 226.346H542.528C542.207 225.819 541.615 225.462 540.929 225.462C539.902 225.462 539.071 226.253 539.071 227.231C539.071 228.208 539.902 229 540.929 229C541.615 229 542.207 228.642 542.528 228.115H545.571C548.125 228.115 550.214 226.125 550.214 223.692V222.808H553V216.615H550.214V215.731C550.214 213.299 548.125 211.308 545.571 211.308H540.929V209.293C541.482 208.987 541.857 208.423 541.857 207.769C541.857 206.792 541.026 206 540 206ZM536.286 215.731C535.26 215.731 534.429 216.523 534.429 217.5C534.429 218.477 535.26 219.269 536.286 219.269C537.312 219.269 538.143 218.477 538.143 217.5C538.143 216.523 537.312 215.731 536.286 215.731ZM543.714 215.731C542.688 215.731 541.857 216.523 541.857 217.5C541.857 218.477 542.688 219.269 543.714 219.269C544.74 219.269 545.571 218.477 545.571 217.5C545.571 216.523 544.74 215.731 543.714 215.731ZM528.857 218.385H529.786V221.038H528.857V218.385ZM550.214 218.385H551.143V221.038H550.214V218.385Z" stroke="#19ECB7" stroke-width="4" shape-rendering="crispEdges" mask="url(#path-14-inside-2_1_27712)"/>
</g>
<rect class='SIcon' x="767.949" y="57.6528" width="31.0882" height="31.0882" rx="15.5441" fill="#F14F5D" fill-opacity="0.64"/>
<rect class='SIcon' x="767.949" y="57.6528" width="31.0882" height="31.0882" rx="15.5441" stroke="#F14F5D"/>
<path class='SIcon' d="M783.982 74.2008L782.024 73.8048C779.758 73.3428 777.602 72.0668 777.602 69.3828C777.602 66.3688 780.726 64.9608 783.432 64.9608C786.38 64.9608 788.866 66.3028 789.504 69.5148H787.084C786.556 67.6448 784.84 67.0508 783.322 67.0508C782.156 67.0508 780.154 67.6008 780.154 69.2728C780.154 70.5928 781.188 71.2748 782.574 71.5608L784.466 71.9568C787.018 72.4848 789.812 73.4308 789.812 76.6648C789.812 79.8328 786.754 81.4828 783.674 81.4828C780 81.4828 777.47 79.4368 777.118 76.0928H779.582C780.044 78.2928 781.496 79.3928 783.762 79.3928C785.852 79.3928 787.282 78.4248 787.282 76.8628C787.282 75.2128 785.676 74.5528 783.982 74.2008Z" fill="white"/>
<rect class='BIcon' x="693.451" y="217.292" width="31.0882" height="31.0882" rx="15.5441" fill="#19ECB7" fill-opacity="0.37"/>
<rect class='BIcon' x="693.451" y="217.292" width="31.0882" height="31.0882" rx="15.5441" stroke="#19ECB7"/>
<path class='BIcon' d="M703.386 240.836V224.886H709.26C712.186 224.886 714.914 225.656 714.914 228.89C714.914 230.386 714.188 231.75 713.154 232.344C714.584 232.982 715.552 234.082 715.552 236.128C715.552 239.516 712.978 240.836 709.722 240.836H703.386ZM705.894 233.576V238.768H709.788C711.922 238.768 712.978 237.822 712.978 236.128C712.978 234.368 711.944 233.576 709.656 233.576H705.894ZM705.894 226.954V231.64H709.568C711.306 231.64 712.384 230.936 712.384 229.198C712.384 227.68 711.24 226.954 709.568 226.954H705.894Z" fill="white"/>
<path d="M467 221.115H471.062V266.884H467V221.115Z" fill="#2CF3B0"/>
<path d="M472.679 212.35H476.741V221.134H472.679V212.35Z" fill="#2CF3B0"/>
<path d="M478.358 212.338H482.42V232.68H478.358V212.338Z" fill="#006141"/>
<path d="M484.037 232.827H488.099V136.203H484.037V232.827Z" fill="#2CF3B0"/>
<path d="M501.074 128.441H505.136V73.4257H501.074V128.441Z" fill="#2CF3B0"/>
<path d="M506.752 99.2849H510.815V73.3952H506.752V99.2849Z" fill="#006141"/>
<path d="M512.431 107.576H516.494V99.2543H512.431V107.576Z" fill="#006141"/>
<path d="M910.901 233.167H914.963V231.78H910.901V233.167Z" fill="#006141"/>
<path d="M785.965 50.337H790.027V42.0153H785.965V50.337Z" fill="#006141"/>
<path d="M842.754 42.0188H846.816V38.3203H842.754V42.0188Z" fill="#006141"/>
<path d="M518.11 115.905H522.172V107.584H518.11V115.905Z" fill="#006141"/>
<path d="M916.58 235.477H920.642V233.165H916.58V235.477Z" fill="#006141"/>
<path d="M922.259 244.719H926.321V235.473H922.259V244.719Z" fill="#006141"/>
<path d="M927.938 229.472H932V244.729H927.938V229.472Z" fill="#2CF3B0"/>
<path d="M791.644 58.6664H795.706V50.3447H791.644V58.6664Z" fill="#006141"/>
<path d="M848.433 42.0125H852.495V46.6356H848.433V42.0125Z" fill="#006141"/>
<path d="M523.789 124.212H527.851V115.891H523.789V124.212Z" fill="#006141"/>
<path d="M797.323 66.9732H801.385V58.6515H797.323V66.9732Z" fill="#006141"/>
<path d="M854.112 46.6314H858.174V54.953H854.112V46.6314Z" fill="#006141"/>
<path d="M529.468 151.911H533.53V124.172H529.468V151.911Z" fill="#006141"/>
<path d="M803.002 94.6716H807.064V66.9328H803.002V94.6716Z" fill="#006141"/>
<path d="M534.674 160.19H538.736V151.868H534.674V160.19Z" fill="#006141"/>
<path d="M540.352 160.256H544.415V118.186H540.352V160.256Z" fill="#2CF3B0"/>
<path d="M808.681 94.7085H812.743V52.6379H808.681V94.7085Z" fill="#2CF3B0"/>
<path d="M557.862 168.994H561.925V156.05H557.862V168.994Z" fill="#2CF3B0"/>
<path d="M563.541 156.088H567.604V129.274H563.541V156.088Z" fill="#2CF3B0"/>
<path d="M546.505 126.521H550.567V118.199H546.505V126.521Z" fill="#006141"/>
<path d="M552.184 169.029H556.246V126.496H552.184V169.029Z" fill="#006141"/>
<path d="M570.167 171.799H574.229V129.266H570.167V171.799Z" fill="#006141"/>
<path d="M814.36 72.9719H818.422V52.6301H814.36V72.9719Z" fill="#006141"/>
<path d="M575.846 214.266H579.908V171.734H575.846V214.266Z" fill="#006141"/>
<path d="M581.525 239.166H585.587V214.201H581.525V239.166Z" fill="#006141"/>
<path d="M587.203 239.14H591.266V228.969H587.203V239.14Z" fill="#2CF3B0"/>
<path d="M700.782 206.828H704.844V196.657H700.782V206.828Z" fill="#2CF3B0"/>
<path d="M592.882 229.446H596.945V227.135H592.882V229.446Z" fill="#2CF3B0"/>
<path d="M706.46 197.134H710.523V194.822H706.46V197.134Z" fill="#2CF3B0"/>
<path d="M598.561 226.677H602.624V214.194H598.561V226.677Z" fill="#2CF3B0"/>
<path d="M712.139 194.364H716.202V181.882H712.139V194.364Z" fill="#2CF3B0"/>
<path d="M604.24 213.791H608.302V185.59H604.24V213.791Z" fill="#2CF3B0"/>
<path d="M717.818 181.479H721.881V153.278H717.818V181.479Z" fill="#2CF3B0"/>
<path d="M609.919 186.104H613.981V163.913H609.919V186.104Z" fill="#2CF3B0"/>
<path d="M723.497 153.792H727.559V131.601H723.497V153.792Z" fill="#2CF3B0"/>
<path d="M888.185 262.066H892.248V251.5H888.185V262.066Z" fill="#2CF3B0"/>
<path d="M865.47 36.5186H869.532V8.3174H865.47V36.5186Z" fill="#2CF3B0"/>
<path d="M871.149 8.78397H875.211V3.69852H871.149V8.78397Z" fill="#2CF3B0"/>
<path d="M615.598 163.892H619.66V157.419H615.598V163.892Z" fill="#2CF3B0"/>
<path d="M729.176 131.579H733.238V125.107H729.176V131.579Z" fill="#2CF3B0"/>
<path d="M893.864 253.199H897.926V246.726H893.864V253.199Z" fill="#2CF3B0"/>
<path d="M621.277 156.968H625.339V153.269H621.277V156.968Z" fill="#2CF3B0"/>
<path d="M734.855 124.655H738.917V120.957H734.855V124.655Z" fill="#2CF3B0"/>
<path d="M899.543 246.274H903.605V242.576H899.543V246.274Z" fill="#2CF3B0"/>
<path d="M626.956 153.294H631.018V134.339H626.956V153.294Z" fill="#2CF3B0"/>
<path d="M740.534 120.982H744.596V102.027H740.534V120.982Z" fill="#2CF3B0"/>
<path d="M905.222 246.274H909.284V231.321H905.222V246.274Z" fill="#2CF3B0"/>
<path d="M751.892 80.8029H755.954V74.3305H751.892V80.8029Z" fill="#2CF3B0"/>
<path d="M820.038 72.9556H824.101V66.4832H820.038V72.9556Z" fill="#2CF3B0"/>
<path d="M757.57 73.8788H761.633V70.1803H757.57V73.8788Z" fill="#2CF3B0"/>
<path d="M825.717 66.0315H829.78V62.333H825.717V66.0315Z" fill="#2CF3B0"/>
<path d="M763.25 70.2051H767.312V51.2502H763.25V70.2051Z" fill="#2CF3B0"/>
<path d="M831.396 62.3579H835.459V43.403H831.396V62.3579Z" fill="#2CF3B0"/>
<path d="M859.791 55.8954H863.853V36.9405H859.791V55.8954Z" fill="#2CF3B0"/>
<path d="M768.928 52.645H772.991V46.1726H768.928V52.645Z" fill="#2CF3B0"/>
<path d="M837.075 44.7977H841.138V38.3253H837.075V44.7977Z" fill="#2CF3B0"/>
<path d="M774.607 45.7209H778.669V42.0224H774.607V45.7209Z" fill="#2CF3B0"/>
<path d="M780.286 42.0472H784.348V23.0923H780.286V42.0472Z" fill="#2CF3B0"/>
<path d="M632.635 134.406H636.697V112.215H632.635V134.406Z" fill="#2CF3B0"/>
<path d="M746.213 102.093H750.275V79.9024H746.213V102.093Z" fill="#2CF3B0"/>
<path d="M638.314 118.655H642.376V112.182H638.314V118.655Z" fill="#006141"/>
<path d="M643.993 124.655H648.055V118.183H643.993V124.655Z" fill="#006141"/>
<path d="M649.671 139.902H653.734V124.645H649.671V139.902Z" fill="#006141"/>
<path d="M655.35 139.893H659.413V130.185H655.35V139.893Z" fill="#2CF3B0"/>
<path d="M661.029 130.2H665.091V120.491H661.029V130.2Z" fill="#2CF3B0"/>
<path d="M689.424 182.385H693.486V156.958H689.424V182.385Z" fill="#006141"/>
<path d="M882.507 262.066H886.569V93.7179H882.507V262.066Z" fill="#006141"/>
<path d="M695.103 206.85H699.165V181.423H695.103V206.85Z" fill="#006141"/>
<path d="M666.708 120.035H670.77V116.337H666.708V120.035Z" fill="#2CF3B0"/>
<path d="M672.387 126.033H676.449V116.325H672.387V126.033Z" fill="#006141"/>
<path d="M489.716 165.779H493.778V136.191H489.716V165.779Z" fill="#2CF3B0"/>
<path d="M495.394 136.199H499.457V128.34H495.394V136.199Z" fill="#2CF3B0"/>
<path d="M678.066 126.955H682.128V126.03H678.066V126.955Z" fill="#006141"/>
<path d="M683.745 156.946H687.807V126.433H683.745V156.946Z" fill="#006141"/>
<path d="M876.828 94.1675H880.89V3.55389H876.828V94.1675Z" fill="#006141"/>
<path d="M700.313 207.289H704.412V197.089H700.313V207.289Z" fill="#2CF3B0"/>
<path d="M706.044 197.568H710.144V195.249H706.044V197.568Z" fill="#2CF3B0"/>
<path d="M711.775 194.79H715.875V182.272H711.775V194.79Z" fill="#2CF3B0"/>
<path d="M717.506 181.868H721.606V153.587H717.506V181.868Z" fill="#2CF3B0"/>
<path d="M723.237 154.103H727.337V131.849H723.237V154.103Z" fill="#2CF3B0"/>
<path d="M728.968 131.828H733.068V125.337H728.968V131.828Z" fill="#2CF3B0"/>
<path d="M734.7 124.884H738.799V121.175H734.7V124.884Z" fill="#2CF3B0"/>
<path d="M740.431 121.2H744.53V102.191H740.431V121.2Z" fill="#2CF3B0"/>
<path d="M751.893 80.9071H755.993V74.4164H751.893V80.9071Z" fill="#2CF3B0"/>
<path d="M757.624 73.9634H761.724V70.2545H757.624V73.9634Z" fill="#2CF3B0"/>
<path d="M763.355 70.2793H767.455V51.2708H763.355V70.2793Z" fill="#2CF3B0"/>
<path d="M746.162 102.258H750.261V80.0041H746.162V102.258Z" fill="#2CF3B0"/>
<rect x="1234.95" y="57.6528" width="31.0882" height="31.0882" rx="15.5441" fill="#F14F5D" fill-opacity="0.64"/>
<rect x="1234.95" y="57.6528" width="31.0882" height="31.0882" rx="15.5441" stroke="#F14F5D"/>
<path d="M1250.98 74.2008L1249.02 73.8048C1246.76 73.3428 1244.6 72.0668 1244.6 69.3828C1244.6 66.3688 1247.73 64.9608 1250.43 64.9608C1253.38 64.9608 1255.87 66.3028 1256.5 69.5148H1254.08C1253.56 67.6448 1251.84 67.0508 1250.32 67.0508C1249.16 67.0508 1247.15 67.6008 1247.15 69.2728C1247.15 70.5928 1248.19 71.2748 1249.57 71.5608L1251.47 71.9568C1254.02 72.4848 1256.81 73.4308 1256.81 76.6648C1256.81 79.8328 1253.75 81.4828 1250.67 81.4828C1247 81.4828 1244.47 79.4368 1244.12 76.0928H1246.58C1247.04 78.2928 1248.5 79.3928 1250.76 79.3928C1252.85 79.3928 1254.28 78.4248 1254.28 76.8628C1254.28 75.2128 1252.68 74.5528 1250.98 74.2008Z" fill="white"/>
<rect x="1160.45" y="217.292" width="31.0882" height="31.0882" rx="15.5441" fill="#19ECB7" fill-opacity="0.37"/>
<rect x="1160.45" y="217.292" width="31.0882" height="31.0882" rx="15.5441" stroke="#19ECB7"/>
<path d="M1170.39 240.836V224.886H1176.26C1179.19 224.886 1181.91 225.656 1181.91 228.89C1181.91 230.386 1181.19 231.75 1180.15 232.344C1181.58 232.982 1182.55 234.082 1182.55 236.128C1182.55 239.516 1179.98 240.836 1176.72 240.836H1170.39ZM1172.89 233.576V238.768H1176.79C1178.92 238.768 1179.98 237.822 1179.98 236.128C1179.98 234.368 1178.94 233.576 1176.66 233.576H1172.89ZM1172.89 226.954V231.64H1176.57C1178.31 231.64 1179.38 230.936 1179.38 229.198C1179.38 227.68 1178.24 226.954 1176.57 226.954H1172.89Z" fill="white"/>
<path d="M934 221.115H938.062V266.884H934V221.115Z" fill="#2CF3B0"/>
<path d="M939.679 212.35H943.741V221.134H939.679V212.35Z" fill="#2CF3B0"/>
<path d="M945.358 212.338H949.42V232.68H945.358V212.338Z" fill="#006141"/>
<path d="M951.037 232.827H955.099V136.203H951.037V232.827Z" fill="#2CF3B0"/>
<path d="M968.074 128.441H972.136V73.4257H968.074V128.441Z" fill="#2CF3B0"/>
<path d="M973.752 99.2849H977.815V73.3952H973.752V99.2849Z" fill="#006141"/>
<path d="M979.431 107.576H983.494V99.2543H979.431V107.576Z" fill="#006141"/>
<path d="M1377.9 233.167H1381.96V231.78H1377.9V233.167Z" fill="#006141"/>
<path d="M1252.97 50.337H1257.03V42.0153H1252.97V50.337Z" fill="#006141"/>
<path d="M1309.75 42.0188H1313.82V38.3203H1309.75V42.0188Z" fill="#006141"/>
<path d="M985.11 115.905H989.172V107.584H985.11V115.905Z" fill="#006141"/>
<path d="M1383.58 235.477H1387.64V233.165H1383.58V235.477Z" fill="#006141"/>
<path d="M1389.26 244.719H1393.32V235.473H1389.26V244.719Z" fill="#006141"/>
<path d="M1394.94 229.472H1399V244.729H1394.94V229.472Z" fill="#2CF3B0"/>
<path d="M1258.64 58.6664H1262.71V50.3447H1258.64V58.6664Z" fill="#006141"/>
<path d="M1315.43 42.0125H1319.5V46.6356H1315.43V42.0125Z" fill="#006141"/>
<path d="M990.789 124.212H994.851V115.891H990.789V124.212Z" fill="#006141"/>
<path d="M1264.32 66.9732H1268.39V58.6515H1264.32V66.9732Z" fill="#006141"/>
<path d="M1321.11 46.6314H1325.17V54.953H1321.11V46.6314Z" fill="#006141"/>
<path d="M996.468 151.911H1000.53V124.172H996.468V151.911Z" fill="#006141"/>
<path d="M1270 94.6716H1274.06V66.9328H1270V94.6716Z" fill="#006141"/>
<path d="M1001.67 160.19H1005.74V151.868H1001.67V160.19Z" fill="#006141"/>
<path d="M1007.35 160.256H1011.41V118.186H1007.35V160.256Z" fill="#2CF3B0"/>
<path d="M1275.68 94.7085H1279.74V52.6379H1275.68V94.7085Z" fill="#2CF3B0"/>
<path d="M1024.86 168.994H1028.92V156.05H1024.86V168.994Z" fill="#2CF3B0"/>
<path d="M1030.54 156.088H1034.6V129.274H1030.54V156.088Z" fill="#2CF3B0"/>
<path d="M1013.5 126.521H1017.57V118.199H1013.5V126.521Z" fill="#006141"/>
<path d="M1019.18 169.029H1023.25V126.496H1019.18V169.029Z" fill="#006141"/>
<path d="M1037.17 171.799H1041.23V129.266H1037.17V171.799Z" fill="#006141"/>
<path d="M1281.36 72.9719H1285.42V52.6301H1281.36V72.9719Z" fill="#006141"/>
<path d="M1042.85 214.266H1046.91V171.734H1042.85V214.266Z" fill="#006141"/>
<path d="M1048.52 239.166H1052.59V214.201H1048.52V239.166Z" fill="#006141"/>
<path d="M1054.2 239.14H1058.27V228.969H1054.2V239.14Z" fill="#2CF3B0"/>
<path d="M1167.78 206.828H1171.84V196.657H1167.78V206.828Z" fill="#2CF3B0"/>
<path d="M1059.88 229.446H1063.94V227.135H1059.88V229.446Z" fill="#2CF3B0"/>
<path d="M1173.46 197.134H1177.52V194.822H1173.46V197.134Z" fill="#2CF3B0"/>
<path d="M1065.56 226.677H1069.62V214.194H1065.56V226.677Z" fill="#2CF3B0"/>
<path d="M1179.14 194.364H1183.2V181.882H1179.14V194.364Z" fill="#2CF3B0"/>
<path d="M1071.24 213.791H1075.3V185.59H1071.24V213.791Z" fill="#2CF3B0"/>
<path d="M1184.82 181.479H1188.88V153.278H1184.82V181.479Z" fill="#2CF3B0"/>
<path d="M1076.92 186.104H1080.98V163.913H1076.92V186.104Z" fill="#2CF3B0"/>
<path d="M1190.5 153.792H1194.56V131.601H1190.5V153.792Z" fill="#2CF3B0"/>
<path d="M1355.19 262.066H1359.25V251.5H1355.19V262.066Z" fill="#2CF3B0"/>
<path d="M1332.47 36.5186H1336.53V8.3174H1332.47V36.5186Z" fill="#2CF3B0"/>
<path d="M1338.15 8.78397H1342.21V3.69852H1338.15V8.78397Z" fill="#2CF3B0"/>
<path d="M1082.6 163.892H1086.66V157.419H1082.6V163.892Z" fill="#2CF3B0"/>
<path d="M1196.18 131.579H1200.24V125.107H1196.18V131.579Z" fill="#2CF3B0"/>
<path d="M1360.86 253.199H1364.93V246.726H1360.86V253.199Z" fill="#2CF3B0"/>
<path d="M1088.28 156.968H1092.34V153.269H1088.28V156.968Z" fill="#2CF3B0"/>
<path d="M1201.85 124.655H1205.92V120.957H1201.85V124.655Z" fill="#2CF3B0"/>
<path d="M1366.54 246.274H1370.61V242.576H1366.54V246.274Z" fill="#2CF3B0"/>
<path d="M1093.96 153.294H1098.02V134.339H1093.96V153.294Z" fill="#2CF3B0"/>
<path d="M1207.53 120.982H1211.6V102.027H1207.53V120.982Z" fill="#2CF3B0"/>
<path d="M1372.22 246.274H1376.28V231.321H1372.22V246.274Z" fill="#2CF3B0"/>
<path d="M1218.89 80.8029H1222.95V74.3305H1218.89V80.8029Z" fill="#2CF3B0"/>
<path d="M1287.04 72.9556H1291.1V66.4832H1287.04V72.9556Z" fill="#2CF3B0"/>
<path d="M1224.57 73.8788H1228.63V70.1803H1224.57V73.8788Z" fill="#2CF3B0"/>
<path d="M1292.72 66.0315H1296.78V62.333H1292.72V66.0315Z" fill="#2CF3B0"/>
<path d="M1230.25 70.2051H1234.31V51.2502H1230.25V70.2051Z" fill="#2CF3B0"/>
<path d="M1298.4 62.3579H1302.46V43.403H1298.4V62.3579Z" fill="#2CF3B0"/>
<path d="M1326.79 55.8954H1330.85V36.9405H1326.79V55.8954Z" fill="#2CF3B0"/>
<path d="M1235.93 52.645H1239.99V46.1726H1235.93V52.645Z" fill="#2CF3B0"/>
<path d="M1304.08 44.7977H1308.14V38.3253H1304.08V44.7977Z" fill="#2CF3B0"/>
<path d="M1241.61 45.7209H1245.67V42.0224H1241.61V45.7209Z" fill="#2CF3B0"/>
<path d="M1247.29 42.0472H1251.35V23.0923H1247.29V42.0472Z" fill="#2CF3B0"/>
<path d="M1099.63 134.406H1103.7V112.215H1099.63V134.406Z" fill="#2CF3B0"/>
<path d="M1213.21 102.093H1217.28V79.9024H1213.21V102.093Z" fill="#2CF3B0"/>
<path d="M1105.31 118.655H1109.38V112.182H1105.31V118.655Z" fill="#006141"/>
<path d="M1110.99 124.655H1115.05V118.183H1110.99V124.655Z" fill="#006141"/>
<path d="M1116.67 139.902H1120.73V124.645H1116.67V139.902Z" fill="#006141"/>
<path d="M1122.35 139.893H1126.41V130.185H1122.35V139.893Z" fill="#2CF3B0"/>
<path d="M1128.03 130.2H1132.09V120.491H1128.03V130.2Z" fill="#2CF3B0"/>
<path d="M1156.42 182.385H1160.49V156.958H1156.42V182.385Z" fill="#006141"/>
<path d="M1349.51 262.066H1353.57V93.7179H1349.51V262.066Z" fill="#006141"/>
<path d="M1162.1 206.85H1166.16V181.423H1162.1V206.85Z" fill="#006141"/>
<path d="M1133.71 120.035H1137.77V116.337H1133.71V120.035Z" fill="#2CF3B0"/>
<path d="M1139.39 126.033H1143.45V116.325H1139.39V126.033Z" fill="#006141"/>
<path d="M956.716 165.779H960.778V136.191H956.716V165.779Z" fill="#2CF3B0"/>
<path d="M962.394 136.199H966.457V128.34H962.394V136.199Z" fill="#2CF3B0"/>
<path d="M1145.07 126.955H1149.13V126.03H1145.07V126.955Z" fill="#006141"/>
<path d="M1150.74 156.946H1154.81V126.433H1150.74V156.946Z" fill="#006141"/>
<path d="M1343.83 94.1675H1347.89V3.55389H1343.83V94.1675Z" fill="#006141"/>
<path d="M1167.31 207.289H1171.41V197.089H1167.31V207.289Z" fill="#2CF3B0"/>
<path d="M1173.04 197.568H1177.14V195.249H1173.04V197.568Z" fill="#2CF3B0"/>
<path d="M1178.78 194.79H1182.87V182.272H1178.78V194.79Z" fill="#2CF3B0"/>
<path d="M1184.51 181.868H1188.61V153.587H1184.51V181.868Z" fill="#2CF3B0"/>
<path d="M1190.24 154.103H1194.34V131.849H1190.24V154.103Z" fill="#2CF3B0"/>
<path d="M1195.97 131.828H1200.07V125.337H1195.97V131.828Z" fill="#2CF3B0"/>
<path d="M1201.7 124.884H1205.8V121.175H1201.7V124.884Z" fill="#2CF3B0"/>
<path d="M1207.43 121.2H1211.53V102.191H1207.43V121.2Z" fill="#2CF3B0"/>
<path d="M1218.89 80.9071H1222.99V74.4164H1218.89V80.9071Z" fill="#2CF3B0"/>
<path d="M1224.62 73.9634H1228.72V70.2545H1224.62V73.9634Z" fill="#2CF3B0"/>
<path d="M1230.36 70.2793H1234.45V51.2708H1230.36V70.2793Z" fill="#2CF3B0"/>
<path d="M1213.16 102.258H1217.26V80.0041H1213.16V102.258Z" fill="#2CF3B0"/>
<defs>
<filter id="filter0_d_1_27712" x="5.3" y="155.3" width="135.4" height="132.4" filterUnits="userSpaceOnUse" color-interpolation-filters="sRGB">
<feFlood flood-opacity="0" result="BackgroundImageFix"/>
<feColorMatrix in="SourceAlpha" type="matrix" values="0 0 0 0 0 0 0 0 0 0 0 0 0 0 0 0 0 0 127 0" result="hardAlpha"/>
<feOffset dy="4"/>
<feGaussianBlur stdDeviation="27.35"/>
<feComposite in2="hardAlpha" operator="out"/>
<feColorMatrix type="matrix" values="0 0 0 0 0.172549 0 0 0 0 0.952941 0 0 0 0 0.690196 0 0 0 0.21 0"/>
<feBlend mode="normal" in2="BackgroundImageFix" result="effect1_dropShadow_1_27712"/>
<feBlend mode="normal" in="SourceGraphic" in2="effect1_dropShadow_1_27712" result="shape"/>
</filter>
<filter id="filter1_d_1_27712" x="472.3" y="155.3" width="135.4" height="132.4" filterUnits="userSpaceOnUse" color-interpolation-filters="sRGB">
<feFlood flood-opacity="0" result="BackgroundImageFix"/>
<feColorMatrix in="SourceAlpha" type="matrix" values="0 0 0 0 0 0 0 0 0 0 0 0 0 0 0 0 0 0 127 0" result="hardAlpha"/>
<feOffset dy="4"/>
<feGaussianBlur stdDeviation="27.35"/>
<feComposite in2="hardAlpha" operator="out"/>
<feColorMatrix type="matrix" values="0 0 0 0 0.172549 0 0 0 0 0.952941 0 0 0 0 0.690196 0 0 0 0.21 0"/>
<feBlend mode="normal" in2="BackgroundImageFix" result="effect1_dropShadow_1_27712"/>
<feBlend mode="normal" in="SourceGraphic" in2="effect1_dropShadow_1_27712" result="shape"/>
</filter>
</defs>
</svg>
