<svg width="18" height="16" viewBox="0 0 18 16" fill="none" xmlns="http://www.w3.org/2000/svg">
<path d="M8.35705 2.29076C7.97426 2.07769 7.71417 1.68558 7.71409 1.23098C7.71409 0.550978 8.28964 0 9 0C9.71036 1.27979e-07 10.2859 0.550978 10.2859 1.23098L10.2825 1.31522C10.2526 1.73376 10.0019 2.09097 9.64295 2.29076V3.69226H12.857C14.6245 3.69226 16.071 5.07711 16.0711 6.76902V7.38451H18V11.6923H16.0711V12.3077L16.0671 12.4654C15.9806 14.0849 14.5694 15.3845 12.857 15.3845H10.7504C10.5278 15.751 10.1179 16 9.64295 16L9.51112 15.9939C8.86269 15.9308 8.35705 15.4065 8.35705 14.769C8.35716 14.0891 8.93267 13.5387 9.64295 13.5387C10.0587 13.5388 10.4244 13.7291 10.6584 14.0224L10.7504 14.1535H12.857C13.9296 14.1535 14.7859 13.3345 14.7859 12.3077V6.76902C14.7858 5.74236 13.9296 4.92323 12.857 4.92323H5.14295V3.69226H8.35705V2.29076ZM5.14295 4.92323L4.94419 4.93274C3.96656 5.02664 3.2142 5.80662 3.21409 6.76902V13.5387H4.5V11.0768H13.5V12.9232H12.2141V12.3077H5.78591V13.5387H7.07114V14.769H1.92886V11.6923H0V7.38451H1.92886V6.76902C1.92898 5.13002 3.2863 3.77923 4.97799 3.69633L5.14295 3.69226V4.92323ZM1.28591 8.61549V10.4613H1.92886V8.61549H1.28591ZM16.0711 8.61549V10.4613H16.7141V8.61549H16.0711ZM6.52757 8L6.52216 7.9538C6.51255 7.91102 6.49118 7.87907 6.47416 7.86277C6.46345 7.85258 6.45318 7.84704 6.44509 7.84375L6.42886 7.83967C6.42386 7.83967 6.4043 7.84236 6.38289 7.86277C6.3602 7.88449 6.32948 7.93373 6.32948 8L6.33489 8.0462C6.34449 8.08899 6.36586 8.12093 6.38289 8.13723C6.4043 8.15763 6.42386 8.16033 6.42886 8.16033V9.23098L6.29703 9.22418C5.64853 9.16116 5.14295 8.63748 5.14295 8C5.14295 7.32 5.7185 6.76902 6.42886 6.76902C7.13909 6.76917 7.71409 7.32009 7.71409 8L7.70733 8.12568C7.64161 8.74648 7.09475 9.23084 6.42886 9.23098V8.16033C6.43428 8.16021 6.45316 8.15721 6.47416 8.13723C6.49118 8.12093 6.51255 8.08898 6.52216 8.0462L6.52757 8ZM11.6705 8L11.6651 7.9538C11.6555 7.91101 11.6341 7.87907 11.6171 7.86277C11.6064 7.85259 11.5961 7.84705 11.588 7.84375L11.5711 7.83967C11.5657 7.83979 11.5468 7.84279 11.5258 7.86277C11.5032 7.88449 11.4724 7.93373 11.4724 8L11.4778 8.0462C11.4874 8.08898 11.5088 8.12093 11.5258 8.13723C11.5468 8.15721 11.5657 8.16021 11.5711 8.16033V9.23098L11.44 9.22418C10.7914 9.1612 10.2859 8.63751 10.2859 8C10.2859 7.32009 10.8609 6.76917 11.5711 6.76902C12.2815 6.76902 12.857 7.32 12.857 8L12.8503 8.12568C12.7846 8.74658 12.2372 9.23098 11.5711 9.23098V8.16033C11.5761 8.16033 11.5957 8.15764 11.6171 8.13723C11.6341 8.12093 11.6555 8.08899 11.6651 8.0462L11.6705 8Z" fill="currentColor"/>
</svg>
